<svg width="25" height="25" viewBox="0 0 25 25" fill="none" xmlns="http://www.w3.org/2000/svg">
<path fill-rule="evenodd" clip-rule="evenodd" d="M24 -4.00543e-05C24.2652 -4.00543e-05 24.5196 0.105316 24.7071 0.292852C24.8946 0.480389 25 0.734743 25 0.99996V13C25 13.2652 24.8946 13.5195 24.7071 13.7071C24.5196 13.8946 24.2652 14 24 14C23.7348 14 23.4804 13.8946 23.2929 13.7071C23.1054 13.5195 23 13.2652 23 13V3.41396L2.708 23.708C2.61502 23.8009 2.50464 23.8747 2.38316 23.925C2.26168 23.9753 2.13148 24.0012 2 24.0012C1.86851 24.0012 1.73831 23.9753 1.61683 23.925C1.49535 23.8747 1.38497 23.8009 1.292 23.708C1.19902 23.615 1.12527 23.5046 1.07495 23.3831C1.02463 23.2616 0.998734 23.1314 0.998734 23C0.998734 22.8685 1.02463 22.7383 1.07495 22.6168C1.12527 22.4953 1.19902 22.3849 1.292 22.292L21.586 1.99996H12C11.7348 1.99996 11.4804 1.8946 11.2929 1.70707C11.1054 1.51953 11 1.26518 11 0.99996C11 0.734743 11.1054 0.480389 11.2929 0.292852C11.4804 0.105316 11.7348 -4.00543e-05 12 -4.00543e-05H24Z" fill="#0E101B"/>
</svg>
