<svg width="25" height="25" viewBox="0 0 25 25" fill="none" xmlns="http://www.w3.org/2000/svg">
<path fill-rule="evenodd" clip-rule="evenodd" d="M24 -4.00543e-05C24.2652 -4.00543e-05 24.5196 0.105316 24.7071 0.292852C24.8946 0.480389 25 0.734743 25 0.99996V13C25 13.2652 24.8946 13.5195 24.7071 13.7071C24.5196 13.8946 24.2652 14 24 14C23.7348 14 23.4804 13.8946 23.2929 13.7071C23.1053 13.5195 23 13.2652 23 13V3.41396L2.70798 23.708C2.61501 23.8009 2.50463 23.8747 2.38315 23.925C2.26167 23.9753 2.13147 24.0012 1.99998 24.0012C1.86849 24.0012 1.73829 23.9753 1.61681 23.925C1.49534 23.8747 1.38496 23.8009 1.29198 23.708C1.19901 23.615 1.12525 23.5046 1.07493 23.3831C1.02462 23.2616 0.998718 23.1314 0.998718 23C0.998718 22.8685 1.02462 22.7383 1.07493 22.6168C1.12525 22.4953 1.19901 22.3849 1.29198 22.292L21.586 1.99996H12C11.7348 1.99996 11.4804 1.8946 11.2929 1.70707C11.1053 1.51953 11 1.26518 11 0.99996C11 0.734743 11.1053 0.480389 11.2929 0.292852C11.4804 0.105316 11.7348 -4.00543e-05 12 -4.00543e-05H24Z" fill="#B61F24"/>
</svg>
