<svg width="18" height="18" viewBox="0 0 18 18" fill="none" xmlns="http://www.w3.org/2000/svg">
<path fill-rule="evenodd" clip-rule="evenodd" d="M17.25 3.05176e-05C17.4489 3.05176e-05 17.6396 0.0790482 17.7803 0.2197C17.921 0.360353 18 0.551119 18 0.750031V9.75003C18 9.94894 17.921 10.1397 17.7803 10.2804C17.6396 10.421 17.4489 10.5 17.25 10.5C17.0511 10.5 16.8603 10.421 16.7196 10.2804C16.579 10.1397 16.5 9.94894 16.5 9.75003V2.56053L1.28097 17.781C1.21124 17.8508 1.12845 17.9061 1.03735 17.9438C0.946237 17.9816 0.848587 18.001 0.749971 18.001C0.651355 18.001 0.553705 17.9816 0.462596 17.9438C0.371487 17.9061 0.288703 17.8508 0.218971 17.781C0.149239 17.7113 0.0939246 17.6285 0.056186 17.5374C0.0184473 17.4463 -0.000976563 17.3486 -0.000976562 17.25C-0.000976562 17.1514 0.0184473 17.0538 0.056186 16.9627C0.0939246 16.8715 0.149239 16.7888 0.218971 16.719L15.4395 1.50003H8.24997C8.05106 1.50003 7.86029 1.42101 7.71964 1.28036C7.57899 1.13971 7.49997 0.948944 7.49997 0.750031C7.49997 0.551119 7.57899 0.360353 7.71964 0.2197C7.86029 0.0790482 8.05106 3.05176e-05 8.24997 3.05176e-05H17.25Z" fill="#B61F24"/>
</svg>
