<svg width="24" height="24" viewBox="0 0 24 24" fill="none" xmlns="http://www.w3.org/2000/svg">
<path d="M8.33333 1.66667V7.5C8.33333 7.96 7.96 8.33333 7.5 8.33333H1.66667V15.6667H7.5C7.96 15.6667 8.33333 16.04 8.33333 16.5V22.3333H15.6667V16.5C15.6667 16.04 16.04 15.6667 16.5 15.6667H22.3333V8.33333H16.5C16.04 8.33333 15.6667 7.96 15.6667 7.5V1.66667H8.33333ZM6.66667 1.5C6.66667 1.10218 6.8247 0.720645 7.10601 0.43934C7.38731 0.158035 7.76884 0 8.16667 0H15.8333C16.2312 0 16.6127 0.158035 16.894 0.43934C17.1753 0.720645 17.3333 1.10218 17.3333 1.5V6.66667H22.5C22.8978 6.66667 23.2794 6.8247 23.5607 7.10601C23.842 7.38731 24 7.76884 24 8.16667V15.8333C24 16.2312 23.842 16.6127 23.5607 16.894C23.2794 17.1753 22.8978 17.3333 22.5 17.3333H17.3333V22.5C17.3333 22.8978 17.1753 23.2794 16.894 23.5607C16.6127 23.842 16.2312 24 15.8333 24H8.16667C7.76884 24 7.38731 23.842 7.10601 23.5607C6.8247 23.2794 6.66667 22.8978 6.66667 22.5V17.3333H1.5C1.10218 17.3333 0.720645 17.1753 0.43934 16.894C0.158035 16.6127 0 16.2312 0 15.8333V8.16667C0 7.76884 0.158035 7.38731 0.43934 7.10601C0.720645 6.8247 1.10218 6.66667 1.5 6.66667H6.66667V1.5Z" fill="white"/>
</svg>
