<svg width="225" height="51" viewBox="0 0 225 51" fill="none" xmlns="http://www.w3.org/2000/svg">
<path d="M91.6442 6.32625C92.4719 6.32625 93.1266 6.16135 93.6086 5.82999C94.0906 5.49862 94.3316 4.90247 94.3316 4.03838C94.3316 3.11087 93.9955 2.47825 93.3201 2.14054C92.9601 1.96296 92.4782 1.87418 91.8757 1.87418H87.5647V6.32625H91.6442ZM85.8001 0.358459H91.8313C92.8238 0.358459 93.6435 0.502742 94.2872 0.792887C95.5112 1.34939 96.1232 2.3752 96.1232 3.87031C96.1232 4.65037 95.9615 5.28934 95.6396 5.78559C95.3178 6.28185 94.8675 6.68138 94.2872 6.98262C94.7962 7.19032 95.1783 7.46144 95.4351 7.79915C95.6936 8.13527 95.8363 8.68228 95.8664 9.43856L95.9282 11.1858C95.9457 11.6836 95.9869 12.053 96.0519 12.294C96.1581 12.7078 96.3484 12.9742 96.6195 13.0931V13.3848H94.4553C94.3966 13.2738 94.3491 13.128 94.3142 12.9504C94.2793 12.7744 94.2492 12.4304 94.2254 11.923L94.1191 9.74931C94.0779 8.89791 93.7608 8.32712 93.1694 8.03856C92.8333 7.87842 92.3038 7.79915 91.5824 7.79915H87.5647V13.3848H85.8001V0.358459Z" fill="#273A8C"/>
<path d="M104.326 0C106.625 0 108.328 0.738841 109.433 2.2181C110.297 3.37075 110.729 4.84526 110.729 6.6432C110.729 8.58701 110.236 10.2042 109.248 11.4932C108.089 13.0073 106.437 13.7636 104.29 13.7636C102.286 13.7636 100.71 13.1009 99.5636 11.777C98.541 10.5007 98.0289 8.88665 98.0289 6.93492C98.0289 5.17344 98.4665 3.66565 99.3416 2.41312C100.466 0.803848 102.127 0 104.326 0ZM104.504 12.1845C106.058 12.1845 107.183 11.628 107.878 10.5134C108.572 9.39877 108.92 8.11769 108.92 6.66856C108.92 5.13856 108.518 3.90505 107.718 2.97119C106.917 2.03734 105.822 1.56964 104.433 1.56964C103.085 1.56964 101.985 2.03259 101.133 2.95852C100.282 3.88286 99.8569 5.24798 99.8569 7.05068C99.8569 8.49347 100.222 9.70953 100.951 10.6989C101.682 11.6898 102.866 12.1845 104.504 12.1845Z" fill="#273A8C"/>
<path d="M111.822 0.358459H113.88L117.621 6.61956L121.363 0.358459H123.429L118.508 8.13528V13.3848H116.743V8.13528L111.822 0.358459Z" fill="#273A8C"/>
<path d="M130.294 8.04649L128.315 2.29116L126.214 8.04649H130.294ZM127.394 0.358459H129.389L134.115 13.3848H132.182L130.862 9.48295H125.709L124.299 13.3848H122.49L127.394 0.358459Z" fill="#273A8C"/>
<path d="M135.721 0.358459H137.486V11.8342H144.083V13.3848H135.721V0.358459Z" fill="#273A8C"/>
<path d="M85.5435 18.5179H88.0708L91.8142 29.5323L95.5289 18.5179H98.0292V31.5443H96.3534V23.8562C96.3534 23.5899 96.3597 23.1491 96.3724 22.5355C96.3835 21.9203 96.3898 21.2608 96.3898 20.5568L92.6735 31.5443H90.9263L87.1845 20.5568V20.9564C87.1845 21.275 87.1924 21.7618 87.2067 22.415C87.221 23.0682 87.2289 23.5486 87.2289 23.8562V31.5443H85.5435V18.5179Z" fill="#273A8C"/>
<path d="M100.884 18.5179H110.383V20.1145H102.606V24.0687H109.798V25.5765H102.606V29.9937H110.516V31.5443H100.884V18.5179Z" fill="#273A8C"/>
<path d="M122.311 18.5179V20.0701H117.921V31.5443H116.129V20.0701H111.74V18.5179H122.311Z" fill="#273A8C"/>
<path d="M129.984 24.4857C130.812 24.4857 131.467 24.3208 131.948 23.9894C132.43 23.658 132.672 23.0603 132.672 22.1978C132.672 21.2703 132.334 20.6377 131.66 20.3C131.298 20.1224 130.818 20.0336 130.214 20.0336H125.905V24.4857H129.984ZM124.14 18.5179H130.17C131.164 18.5179 131.982 18.6621 132.627 18.9523C133.85 19.5072 134.462 20.533 134.462 22.0297C134.462 22.8098 134.301 23.4488 133.98 23.945C133.656 24.4413 133.206 24.8408 132.627 25.1421C133.134 25.3498 133.518 25.6209 133.775 25.9586C134.032 26.2947 134.176 26.8417 134.205 27.598L134.266 29.3452C134.286 29.8415 134.327 30.2108 134.392 30.4534C134.498 30.8672 134.687 31.1336 134.959 31.2526V31.5443H132.795C132.736 31.4317 132.689 31.2874 132.652 31.1098C132.618 30.9322 132.587 30.5898 132.564 30.0809L132.457 27.9087C132.416 27.0573 132.101 26.4865 131.509 26.198C131.172 26.0378 130.644 25.9586 129.922 25.9586H125.905V31.5443H124.14V18.5179Z" fill="#273A8C"/>
<path d="M142.665 18.1594C144.965 18.1594 146.668 18.8983 147.773 20.376C148.636 21.5302 149.067 23.0047 149.067 24.801C149.067 26.7464 148.574 28.3636 147.586 29.6526C146.427 31.1668 144.775 31.923 142.63 31.923C140.626 31.923 139.05 31.2603 137.903 29.9364C136.879 28.6601 136.369 27.0461 136.369 25.0943C136.369 23.3329 136.806 21.8251 137.681 20.5725C138.804 18.9633 140.466 18.1594 142.665 18.1594ZM142.842 30.3439C144.398 30.3439 145.522 29.7874 146.216 28.6728C146.911 27.5582 147.258 26.2771 147.258 24.828C147.258 23.298 146.858 22.0645 146.058 21.1306C145.255 20.1968 144.16 19.729 142.771 19.729C141.423 19.729 140.323 20.192 139.473 21.1179C138.622 22.0423 138.195 23.4058 138.195 25.2101C138.195 26.6529 138.56 27.8689 139.291 28.8583C140.02 29.8492 141.204 30.3439 142.842 30.3439Z" fill="#273A8C"/>
<path d="M151.335 18.5179H157.196C158.355 18.5179 159.289 18.8445 159.999 19.4977C160.708 20.151 161.063 21.069 161.063 22.2517C161.063 23.268 160.748 24.1527 160.115 24.9074C159.483 25.6605 158.509 26.0379 157.196 26.0379H153.099V31.5443H151.335V18.5179ZM159.281 22.2596C159.281 21.302 158.926 20.652 158.217 20.3095C157.826 20.1256 157.291 20.0336 156.611 20.0336H153.099V24.5475H156.611C157.404 24.5475 158.046 24.3794 158.541 24.0417C159.034 23.7056 159.281 23.111 159.281 22.2596Z" fill="#273A8C"/>
<path d="M168.902 18.1594C171.203 18.1594 172.905 18.8983 174.011 20.376C174.875 21.5302 175.306 23.0047 175.306 24.801C175.306 26.7464 174.811 28.3636 173.825 29.6526C172.666 31.1668 171.014 31.923 168.867 31.923C166.863 31.923 165.287 31.2603 164.141 29.9364C163.118 28.6601 162.606 27.0461 162.606 25.0943C162.606 23.3329 163.044 21.8251 163.919 20.5725C165.043 18.9633 166.703 18.1594 168.902 18.1594ZM169.08 30.3439C170.635 30.3439 171.759 29.7874 172.454 28.6728C173.15 27.5582 173.497 26.2771 173.497 24.828C173.497 23.298 173.096 22.0645 172.295 21.1306C171.494 20.1968 170.399 19.729 169.01 19.729C167.661 19.729 166.562 20.192 165.711 21.1179C164.859 22.0423 164.433 23.4058 164.433 25.2101C164.433 26.6529 164.799 27.8689 165.528 28.8583C166.259 29.8492 167.442 30.3439 169.08 30.3439Z" fill="#273A8C"/>
<path d="M177.409 18.5179H179.174V29.9937H185.773V31.5443H177.409V18.5179Z" fill="#273A8C"/>
<path d="M187.911 18.5179H189.693V31.5443H187.911V18.5179Z" fill="#273A8C"/>
<path d="M202.037 18.5179V20.0701H197.647V31.5443H195.856V20.0701H191.467V18.5179H202.037Z" fill="#273A8C"/>
<path d="M208.994 26.2059L207.017 20.4506L204.915 26.2059H208.994ZM206.094 18.5179H208.09L212.817 31.5443H210.884L209.562 27.6424H204.411L202.999 31.5443H201.19L206.094 18.5179Z" fill="#273A8C"/>
<path d="M214.421 18.5179H216.506L223.086 29.0709V18.5179H224.762V31.5443H222.785L216.107 21.0008V31.5443H214.421V18.5179Z" fill="#273A8C"/>
<path d="M87.5062 36.686V44.7371C87.5062 45.6837 87.6838 46.4701 88.039 47.0963C88.5653 48.0429 89.4516 48.5153 90.6994 48.5153C92.1945 48.5153 93.2124 48.0048 93.7499 46.9822C94.04 46.4257 94.1843 45.6773 94.1843 44.7371V36.686H95.9759V44.0015C95.9759 45.6044 95.7603 46.8363 95.329 47.7004C94.5363 49.2716 93.0396 50.058 90.8405 50.058C88.6414 50.058 87.1495 49.2716 86.3631 47.7004C85.9318 46.8363 85.7146 45.6044 85.7146 44.0015V36.686H87.5062Z" fill="#273A8C"/>
<path d="M98.705 36.686H100.788L107.368 47.239V36.686H109.044V49.7124H107.067L100.389 39.1689V49.7124H98.705V36.686Z" fill="#273A8C"/>
<path d="M112.221 36.686H114.003V49.7124H112.221V36.686Z" fill="#273A8C"/>
<path d="M117.894 36.686L121.638 47.7797L125.335 36.686H127.312L122.559 49.7124H120.688L115.944 36.686H117.894Z" fill="#273A8C"/>
<path d="M129.15 36.686H138.648V38.2826H130.871V42.2368H138.062V43.7446H130.871V48.1602H138.781V49.7124H129.15V36.686Z" fill="#273A8C"/>
<path d="M147.15 42.6538C147.977 42.6538 148.632 42.4889 149.114 42.1576C149.596 41.8262 149.837 41.2285 149.837 40.3659C149.837 39.4384 149.5 38.8058 148.826 38.4681C148.466 38.2906 147.984 38.2018 147.381 38.2018H143.07V42.6538H147.15ZM141.306 36.686H147.337C148.329 36.686 149.149 36.8303 149.793 37.1205C151.017 37.6754 151.629 38.7012 151.629 40.1979C151.629 40.978 151.467 41.6169 151.145 42.1131C150.823 42.6094 150.372 43.0089 149.793 43.3102C150.302 43.5163 150.684 43.789 150.941 44.1267C151.199 44.4629 151.342 45.0099 151.372 45.7661L151.434 47.5133C151.451 48.0096 151.492 48.379 151.557 48.6216C151.664 49.0354 151.854 49.3018 152.125 49.4207V49.7124H149.961C149.902 49.5998 149.855 49.4556 149.82 49.278C149.783 49.1004 149.755 48.7579 149.731 48.249L149.625 46.0769C149.584 45.2255 149.266 44.6547 148.675 44.3662C148.339 44.206 147.809 44.1267 147.088 44.1267H143.07V49.7124H141.306V36.686Z" fill="#273A8C"/>
<path d="M155.364 45.5116C155.406 46.2504 155.58 46.8513 155.888 47.3111C156.473 48.1752 157.503 48.6064 158.982 48.6064C159.644 48.6064 160.248 48.5113 160.792 48.3227C161.843 47.9564 162.369 47.3 162.369 46.3535C162.369 45.6448 162.147 45.139 161.705 44.8378C161.255 44.5429 160.552 44.2844 159.595 44.0656L157.828 43.6677C156.676 43.4076 155.861 43.1207 155.382 42.8067C154.554 42.2629 154.14 41.4496 154.14 40.3683C154.14 39.1982 154.545 38.2374 155.355 37.4859C156.165 36.7359 157.311 36.3601 158.795 36.3601C160.162 36.3601 161.321 36.6899 162.276 37.3479C163.232 38.0075 163.709 39.0618 163.709 40.5094H162.05C161.962 39.8117 161.773 39.2774 161.483 38.9048C160.945 38.2247 160.031 37.8854 158.743 37.8854C157.701 37.8854 156.955 38.1042 156.5 38.5418C156.043 38.9794 155.816 39.4867 155.816 40.067C155.816 40.706 156.083 41.1721 156.614 41.4686C156.963 41.6573 157.752 41.8935 158.982 42.1773L160.809 42.5943C161.689 42.7956 162.369 43.07 162.848 43.4188C163.676 44.0276 164.089 44.9123 164.089 46.0697C164.089 47.5125 163.565 48.5446 162.517 49.1646C161.467 49.7861 160.248 50.0968 158.857 50.0968C157.238 50.0968 155.97 49.683 155.054 48.8554C154.137 48.0325 153.687 46.9195 153.706 45.5116H155.364Z" fill="#273A8C"/>
<path d="M166.72 36.686H168.504V49.7124H166.72V36.686Z" fill="#273A8C"/>
<path d="M180.847 36.686V38.2382H176.458V49.7124H174.667V38.2382H170.277V36.686H180.847Z" fill="#273A8C"/>
<path d="M181.454 36.686H183.511L187.254 42.9471L190.996 36.686H193.062L188.14 44.4628V49.7124H186.376V44.4628L181.454 36.686Z" fill="#273A8C"/>
<path d="M44.155 4.89671C42.9738 4.39411 41.8909 4.49559 41.0506 4.76513C40.9285 4.10873 40.6003 3.5744 39.9994 3.26523C37.989 2.22515 36.2513 3.27794 35.4935 3.88676V3.8836L34.6991 1.99526C35.0828 1.87635 35.3619 1.52121 35.3619 1.09789C35.3619 0.57626 34.9402 0.154518 34.417 0.154518C33.8953 0.154518 33.472 0.57626 33.472 1.09789C33.472 1.52121 33.7526 1.87635 34.1363 1.99526L33.342 3.8836V3.88676C32.5841 3.27794 30.8464 2.22515 28.836 3.26523C28.2335 3.5744 27.9053 4.10873 27.7848 4.76513C26.9445 4.49559 25.86 4.39411 24.6804 4.89671C22.0247 6.03033 24.7661 10.8233 27.2505 11.9569H29.1072C29.1072 11.9569 25.0229 9.59609 25.822 6.99748C25.822 6.99748 26.3928 5.86228 27.7769 6.04937C28.0813 8.28015 29.819 11.0563 31.452 11.9569H33.342C33.342 11.9569 29.4702 9.24888 29.9316 6.18572C29.9712 5.92094 30.0743 5.67042 30.2312 5.45638C30.4802 5.11392 30.9383 4.67 31.6502 4.6589C32.592 4.64146 33.342 5.45322 33.342 6.39341V11.9569H34.417H35.4935V6.39341C35.4935 5.45322 36.2434 4.64146 37.1852 4.6589C37.8971 4.67 38.3553 5.11392 38.6042 5.45638C38.7612 5.67042 38.8642 5.92094 38.9039 6.18572C39.3652 9.24888 35.4935 11.9569 35.4935 11.9569H37.3834C39.0148 11.0563 40.7541 8.28015 41.057 6.04937C42.4427 5.86228 43.0119 6.99748 43.0119 6.99748C43.8125 9.59609 39.7283 11.9569 39.7283 11.9569H41.5833C44.0694 10.8233 46.8107 6.03033 44.155 4.89671Z" fill="#B61F24"/>
<path d="M41.5413 13.7347H27.2925V12.6439H41.5413V13.7347Z" fill="#B61F24"/>
<path d="M41.5413 15.4293H27.2925V14.3385H41.5413V15.4293Z" fill="#B61F24"/>
<path d="M53.0314 42.5765C50.8894 42.3577 42.9921 41.5934 31.8588 41.7948C23.6634 41.9422 12.7996 42.6272 0 44.8088C3.87969 44.9024 7.75779 44.9959 11.6375 45.0894C16.5779 44.3744 21.978 43.7973 27.7841 43.4738C36.4297 42.995 43.6834 43.1393 43.6865 43.2804C43.6897 43.412 37.1781 43.4564 27.6969 44.2063C21.0648 44.7311 15.6551 45.3907 12.0846 45.8711C12.4001 46.5084 13.0042 47.5073 14.095 48.3302C14.986 49.0024 16.0055 49.4083 17.6338 49.6763C20.8048 50.1995 23.8172 49.7936 25.8989 49.3369C24.3848 48.6346 22.8707 47.9354 21.3549 47.2346C23.4874 47.8022 25.6199 48.3698 27.7524 48.9406C34.6397 48.067 41.5271 47.195 48.4144 46.3214C47.3744 45.7744 46.3343 45.2242 45.2942 44.6741C47.1477 45.1117 48.9995 45.5476 50.853 45.9837C52.7096 45.8647 54.5741 45.7506 56.4449 45.6412C60.6069 45.3938 64.7387 45.175 68.8403 44.9784C64.6293 44.1255 59.2767 43.2138 53.0314 42.5765Z" fill="#273A8C"/>
<path d="M11.4952 27.0189C12.9697 31.5217 14.4442 36.0229 15.9203 40.5257L7.9881 24.6755C11.3684 24.1698 20.0363 23.3501 28.1381 28.208C30.3388 29.5287 32.0828 31.0191 33.4447 32.4254C31.4454 30.9652 27.7988 28.6932 22.6587 27.4977C17.9228 26.3958 13.9131 26.6717 11.4952 27.0189Z" fill="#273A8C"/>
<path d="M14.0803 20.32C14.196 21.414 14.3117 22.5096 14.4275 23.6036C14.1611 23.5782 13.8948 23.5513 13.6269 23.5243C13.2368 21.7311 12.8468 19.9379 12.4568 18.1431C16.514 18.7964 24.3638 20.6958 30.3934 27.0378C31.6174 28.3252 32.6131 29.6348 33.4312 30.9016C31.7062 28.9958 28.8396 26.2783 24.619 23.9857C20.4777 21.7343 16.6472 20.7672 14.0803 20.32Z" fill="#273A8C"/>
<path d="M20.1807 16.8079C20.26 17.7655 20.3392 18.7247 20.4185 19.6824C20.1157 19.5698 19.8129 19.4589 19.51 19.3463C19.2785 17.7846 19.047 16.226 18.8156 14.6643C21.3745 15.8059 25.6094 18.108 29.2608 22.4681C31.2775 24.8781 32.5554 27.2436 33.3704 29.124C32.205 27.1976 30.4182 24.6909 27.7545 22.1859C25.0021 19.5936 22.2593 17.894 20.1807 16.8079Z" fill="#273A8C"/>
<path d="M57.3442 27.0189C55.8697 31.5217 54.3952 36.0229 52.9191 40.5257L60.8513 24.6755C57.471 24.1698 48.8032 23.3501 40.7013 28.208C38.5006 29.5287 36.7566 31.0191 35.3947 32.4254C37.394 30.9652 41.0406 28.6932 46.1807 27.4977C50.9166 26.3958 54.9263 26.6717 57.3442 27.0189Z" fill="#273A8C"/>
<path d="M54.7538 20.32C54.638 21.414 54.5223 22.5096 54.4066 23.6036C54.6729 23.5782 54.9392 23.5513 55.2072 23.5243C55.5972 21.7311 55.9873 19.9379 56.3773 18.1431C52.32 18.7964 44.4703 20.6958 38.4407 27.0378C37.2167 28.3252 36.2194 29.6348 35.4029 30.9016C37.1279 28.9958 39.9945 26.2783 44.215 23.9857C48.3563 21.7343 52.1869 20.7672 54.7538 20.32Z" fill="#273A8C"/>
<path d="M48.6537 16.8079C48.5744 17.7655 48.4951 18.7247 48.4159 19.6824C48.7187 19.5698 49.0215 19.4589 49.3243 19.3463C49.5558 17.7846 49.7873 16.226 50.0188 14.6643C47.4598 15.8059 43.225 18.108 39.5736 22.4681C37.5553 24.8781 36.2789 27.2436 35.464 29.124C36.6277 27.1976 38.4162 24.6909 41.0798 22.1859C43.8322 19.5936 46.5751 17.894 48.6537 16.8079Z" fill="#273A8C"/>
</svg>
