<svg width="124" height="63" viewBox="0 0 124 63" fill="none" xmlns="http://www.w3.org/2000/svg">
<path fill-rule="evenodd" clip-rule="evenodd" d="M31.4968 0L32.4904 0.558002L46.7484 8.56526L61.0064 0.558002L62 0L62.9936 0.558002L77.2516 8.56525L91.5096 0.558002L92.5032 0L93.4968 0.558002L107.755 8.56525L122.013 0.558002L124 4.11669L108.748 12.6819L107.755 13.2399L106.761 12.6819L92.5032 4.67469L78.2452 12.6819L77.2516 13.2399L76.258 12.6819L62 4.67469L47.742 12.6819L46.7484 13.2399L45.7548 12.6819L31.4968 4.67469L17.2388 12.6819L16.2452 13.2399L15.2516 12.6819L0 4.11669L1.9872 0.558002L16.2452 8.56526L30.5032 0.558002L31.4968 0ZM31.4968 24.88L32.4904 25.438L46.7484 33.4453L61.0064 25.438L62 24.88L62.9936 25.438L77.2516 33.4453L91.5096 25.438L92.5032 24.88L93.4968 25.438L107.755 33.4453L122.013 25.438L124 28.9967L108.748 37.562L107.755 38.12L106.761 37.562L92.5032 29.5547L78.2452 37.562L77.2516 38.12L76.258 37.562L62 29.5547L47.742 37.562L46.7484 38.12L45.7548 37.562L31.4968 29.5547L17.2388 37.562L16.2452 38.12L15.2516 37.562L0 28.9967L1.9872 25.438L16.2452 33.4453L30.5032 25.438L31.4968 24.88ZM32.4904 50.3181L31.4968 49.7601L30.5032 50.3181L16.2452 58.3253L1.9872 50.3181L0 53.8767L15.2516 62.442L16.2452 63L17.2388 62.442L31.4968 54.4347L45.7548 62.442L46.7484 63L47.742 62.442L62 54.4347L76.258 62.442L77.2516 63L78.2452 62.442L92.5032 54.4347L106.761 62.442L107.755 63L108.748 62.442L124 53.8767L122.013 50.3181L107.755 58.3253L93.4968 50.3181L92.5032 49.7601L91.5096 50.3181L77.2516 58.3253L62.9936 50.3181L62 49.7601L61.0064 50.3181L46.7484 58.3253L32.4904 50.3181Z" fill="#FDF11C"/>
</svg>
