<svg width="75" height="38" viewBox="0 0 75 38" fill="none" xmlns="http://www.w3.org/2000/svg">
<path fill-rule="evenodd" clip-rule="evenodd" d="M19.0505 0L19.6514 0.336572L28.2752 5.16635L36.899 0.336572L37.5 0L38.101 0.336572L46.7248 5.16634L55.3486 0.336572L55.9495 0L56.5505 0.336572L65.1743 5.16634L73.7981 0.336572L75 2.48308L65.7752 7.64942L65.1743 7.986L64.5733 7.64942L55.9495 2.81965L47.3257 7.64942L46.7248 7.986L46.1238 7.64942L37.5 2.81965L28.8762 7.64942L28.2752 7.986L27.6743 7.64942L19.0505 2.81965L10.4267 7.64942L9.82572 7.986L9.22476 7.64942L0 2.48308L1.20193 0.336572L9.82572 5.16635L18.4495 0.336572L19.0505 0ZM19.0505 15.007L19.6514 15.3436L28.2752 20.1733L36.899 15.3436L37.5 15.007L38.101 15.3436L46.7248 20.1733L55.3486 15.3436L55.9495 15.007L56.5505 15.3436L65.1743 20.1733L73.7981 15.3436L75 17.4901L65.7752 22.6564L65.1743 22.993L64.5733 22.6564L55.9495 17.8267L47.3257 22.6564L46.7248 22.993L46.1238 22.6564L37.5 17.8267L28.8762 22.6564L28.2752 22.993L27.6743 22.6564L19.0505 17.8267L10.4267 22.6564L9.82572 22.993L9.22476 22.6564L0 17.4901L1.20193 15.3436L9.82572 20.1733L18.4495 15.3436L19.0505 15.007ZM19.6514 30.3506L19.0505 30.014L18.4495 30.3506L9.82572 35.1803L1.20193 30.3506L0 32.4971L9.22476 37.6634L9.82572 38L10.4267 37.6634L19.0505 32.8337L27.6743 37.6634L28.2752 38L28.8762 37.6634L37.5 32.8337L46.1238 37.6634L46.7248 38L47.3257 37.6634L55.9495 32.8337L64.5733 37.6634L65.1743 38L65.7752 37.6634L75 32.4971L73.7981 30.3506L65.1743 35.1803L56.5505 30.3506L55.9495 30.014L55.3486 30.3506L46.7248 35.1803L38.101 30.3506L37.5 30.014L36.899 30.3506L28.2752 35.1803L19.6514 30.3506Z" fill="#FDF11C"/>
</svg>
