<svg width="23" height="22" viewBox="0 0 23 22" fill="none" xmlns="http://www.w3.org/2000/svg">
<path d="M16.9297 13.3164C17.2344 13.3164 17.5312 13.375 17.8203 13.4922C18.1094 13.6094 18.3633 13.7773 18.582 13.9961C18.7461 14.1602 18.9297 14.332 19.1328 14.5117C19.3359 14.6914 19.5508 14.8828 19.7773 15.0859C20.0039 15.2891 20.2148 15.5 20.4102 15.7188C20.6055 15.9375 20.7891 16.1602 20.9609 16.3867C21.1328 16.6133 21.2617 16.8555 21.3477 17.1133C21.4336 17.3711 21.4844 17.6289 21.5 17.8867C21.5 18.1914 21.4414 18.4883 21.3242 18.7773C21.207 19.0664 21.0391 19.3203 20.8203 19.5391C20.4219 19.9375 20.0625 20.2891 19.7422 20.5938C19.4219 20.8984 19.0898 21.1562 18.7461 21.3672C18.4023 21.5781 18.0156 21.7344 17.5859 21.8359C17.1562 21.9375 16.6523 21.9922 16.0742 22C15.2227 22 14.3477 21.8672 13.4492 21.6016C12.5508 21.3359 11.6562 20.9688 10.7656 20.5C9.875 20.0312 9.00391 19.4727 8.15234 18.8242C7.30078 18.1758 6.49609 17.4688 5.73828 16.7031C4.98047 15.9375 4.27734 15.1289 3.62891 14.2773C2.98047 13.4258 2.42969 12.5586 1.97656 11.6758C1.52344 10.793 1.16406 9.90625 0.898438 9.01562C0.632812 8.125 0.5 7.26562 0.5 6.4375C0.5 5.84375 0.550781 5.33594 0.652344 4.91406C0.753906 4.49219 0.910156 4.10938 1.12109 3.76562C1.33203 3.42188 1.58984 3.08984 1.89453 2.76953C2.19922 2.44922 2.55469 2.08594 2.96094 1.67969C3.17969 1.46094 3.43359 1.29297 3.72266 1.17578C4.01172 1.05859 4.30859 1 4.61328 1C5.00391 1 5.37891 1.10547 5.73828 1.31641C6.09766 1.52734 6.44531 1.78516 6.78125 2.08984C7.11719 2.39453 7.42578 2.71484 7.70703 3.05078C7.98828 3.38672 8.25391 3.67578 8.50391 3.91797C8.72266 4.13672 8.89062 4.39062 9.00781 4.67969C9.125 4.96875 9.18359 5.26562 9.18359 5.57031C9.18359 5.875 9.13281 6.14844 9.03125 6.39062C8.92969 6.63281 8.80469 6.84766 8.65625 7.03516C8.50781 7.22266 8.34375 7.39844 8.16406 7.5625C7.98438 7.72656 7.82031 7.88281 7.67188 8.03125C7.52344 8.17969 7.39453 8.32422 7.28516 8.46484C7.17578 8.60547 7.125 8.76172 7.13281 8.93359C7.13281 9.02734 7.20312 9.17578 7.34375 9.37891C7.48438 9.58203 7.67969 9.82422 7.92969 10.1055C8.17969 10.3867 8.45703 10.6875 8.76172 11.0078C9.06641 11.3281 9.39453 11.6602 9.74609 12.0039C10.0977 12.3477 10.4375 12.6797 10.7656 13C11.0938 13.3203 11.4102 13.625 11.7148 13.9141C12.0195 14.2031 12.2773 14.4492 12.4883 14.6523C12.6992 14.8555 12.8633 15.0117 12.9805 15.1211C13.1445 15.2852 13.3398 15.3672 13.5664 15.3672C13.7305 15.3672 13.8828 15.3164 14.0234 15.2148C14.1641 15.1133 14.3086 14.9883 14.457 14.8398C14.6055 14.6914 14.7578 14.5273 14.9141 14.3477C15.0703 14.168 15.25 14.0039 15.4531 13.8555C15.6562 13.707 15.8711 13.5781 16.0977 13.4688C16.3242 13.3594 16.6016 13.3086 16.9297 13.3164ZM16.0742 20.5C16.5508 20.5 16.9492 20.457 17.2695 20.3711C17.5898 20.2852 17.8828 20.1523 18.1484 19.9727C18.4141 19.793 18.6641 19.582 18.8984 19.3398C19.1328 19.0977 19.418 18.8125 19.7539 18.4844C19.918 18.3203 20 18.125 20 17.8984C20 17.7969 19.9375 17.6523 19.8125 17.4648C19.6875 17.2773 19.5312 17.0664 19.3438 16.832C19.1562 16.5977 18.9414 16.3633 18.6992 16.1289C18.457 15.8945 18.2227 15.6797 17.9961 15.4844C17.7695 15.2891 17.5625 15.1289 17.375 15.0039C17.1875 14.8789 17.0391 14.8164 16.9297 14.8164C16.7656 14.8164 16.6094 14.8672 16.4609 14.9688C16.3125 15.0703 16.168 15.1953 16.0273 15.3438C15.8867 15.4922 15.7344 15.6562 15.5703 15.8359C15.4062 16.0156 15.2266 16.1797 15.0312 16.3281C14.8359 16.4766 14.6211 16.6055 14.3867 16.7148C14.1523 16.8242 13.8789 16.875 13.5664 16.8672C13.2539 16.8672 12.957 16.8086 12.6758 16.6914C12.3945 16.5742 12.1406 16.4023 11.9141 16.1758L6.32422 10.5859C6.10547 10.3672 5.9375 10.1172 5.82031 9.83594C5.70312 9.55469 5.64062 9.25391 5.63281 8.93359C5.63281 8.62891 5.68359 8.35938 5.78516 8.125C5.88672 7.89062 6.01172 7.67188 6.16016 7.46875C6.30859 7.26562 6.47266 7.08984 6.65234 6.94141C6.83203 6.79297 6.99609 6.63672 7.14453 6.47266C7.29297 6.30859 7.42188 6.16406 7.53125 6.03906C7.64062 5.91406 7.69141 5.75781 7.68359 5.57031C7.68359 5.46875 7.62109 5.32422 7.49609 5.13672C7.37109 4.94922 7.21484 4.74219 7.02734 4.51562C6.83984 4.28906 6.625 4.05469 6.38281 3.8125C6.14062 3.57031 5.90625 3.35547 5.67969 3.16797C5.45312 2.98047 5.24219 2.82031 5.04688 2.6875C4.85156 2.55469 4.70703 2.49219 4.61328 2.5C4.37891 2.5 4.17969 2.58203 4.01562 2.74609C3.69531 3.06641 3.41016 3.34766 3.16016 3.58984C2.91016 3.83203 2.69922 4.08203 2.52734 4.33984C2.35547 4.59766 2.22656 4.89062 2.14062 5.21875C2.05469 5.54688 2.00781 5.94141 2 6.40234C2 7.15234 2.12109 7.92578 2.36328 8.72266C2.60547 9.51953 2.94141 10.3242 3.37109 11.1367C3.80078 11.9492 4.31641 12.7383 4.91797 13.5039C5.51953 14.2695 6.16406 15 6.85156 15.6953C7.53906 16.3906 8.27344 17.0312 9.05469 17.6172C9.83594 18.2031 10.625 18.7109 11.4219 19.1406C12.2188 19.5703 13.0117 19.9023 13.8008 20.1367C14.5898 20.3711 15.3477 20.4922 16.0742 20.5ZM20 10H12.5V2.5H14V7.43359L20.9727 0.472656L22.0273 1.52734L15.0664 8.5H20V10Z" fill="white"/>
</svg>
