<svg width="28" height="29" viewBox="0 0 28 29" fill="none" xmlns="http://www.w3.org/2000/svg">
<path d="M28 28.5H26V23.5C25.9984 22.1744 25.4711 20.9036 24.5338 19.9662C23.5964 19.0289 22.3256 18.5016 21 18.5V16.5C22.8559 16.5021 24.6351 17.2403 25.9474 18.5526C27.2597 19.8649 27.9979 21.6441 28 23.5V28.5ZM20 28.5H18V23.5C17.9984 22.1744 17.4711 20.9036 16.5338 19.9662C15.5964 19.0289 14.3256 18.5016 13 18.5H7C5.67441 18.5016 4.40356 19.0289 3.46622 19.9662C2.52888 20.9036 2.00159 22.1744 2 23.5V28.5H0V23.5C0.00211736 21.6441 0.740295 19.8649 2.05259 18.5526C3.36489 17.2403 5.14413 16.5021 7 16.5H13C14.8559 16.5021 16.6351 17.2403 17.9474 18.5526C19.2597 19.8649 19.9979 21.6441 20 23.5V28.5ZM18 0.5V2.5C19.3261 2.5 20.5979 3.02678 21.5355 3.96447C22.4732 4.90215 23 6.17392 23 7.5C23 8.82608 22.4732 10.0979 21.5355 11.0355C20.5979 11.9732 19.3261 12.5 18 12.5V14.5C19.8565 14.5 21.637 13.7625 22.9497 12.4497C24.2625 11.137 25 9.35652 25 7.5C25 5.64348 24.2625 3.86301 22.9497 2.55025C21.637 1.2375 19.8565 0.5 18 0.5ZM10 2.5C10.9889 2.5 11.9556 2.79324 12.7779 3.34265C13.6001 3.89206 14.241 4.67295 14.6194 5.58658C14.9978 6.50021 15.0969 7.50555 14.9039 8.47545C14.711 9.44536 14.2348 10.3363 13.5355 11.0355C12.8363 11.7348 11.9454 12.211 10.9755 12.4039C10.0055 12.5969 9.00021 12.4978 8.08658 12.1194C7.17295 11.741 6.39206 11.1001 5.84265 10.2779C5.29324 9.45561 5 8.48891 5 7.5C5 6.17392 5.52678 4.90215 6.46447 3.96447C7.40215 3.02678 8.67392 2.5 10 2.5ZM10 0.5C8.61553 0.5 7.26215 0.910543 6.11101 1.67971C4.95986 2.44888 4.06266 3.54213 3.53284 4.82122C3.00303 6.1003 2.86441 7.50776 3.1345 8.86563C3.4046 10.2235 4.07128 11.4708 5.05025 12.4497C6.02922 13.4287 7.2765 14.0954 8.63437 14.3655C9.99224 14.6356 11.3997 14.497 12.6788 13.9672C13.9579 13.4373 15.0511 12.5401 15.8203 11.389C16.5895 10.2378 17 8.88447 17 7.5C17 5.64348 16.2625 3.86301 14.9497 2.55025C13.637 1.2375 11.8565 0.5 10 0.5Z" fill="white"/>
</svg>
