<svg width="24" height="26" viewBox="0 0 24 26" fill="none" xmlns="http://www.w3.org/2000/svg">
<path fill-rule="evenodd" clip-rule="evenodd" d="M7.09932 3.71712L7.13599 3.55712C7.20599 3.25979 7.32066 2.82246 7.55732 2.39179C7.79866 1.95312 8.17266 1.50846 8.75932 1.21579C9.34399 0.924458 10.0767 0.815791 10.9827 0.935791C11.9827 1.06912 13.9913 1.39979 15.766 2.30246C17.5507 3.21046 19.2227 4.77246 19.2227 7.37379C19.2227 8.71779 18.7027 10.1598 18.1987 11.0998C17.9567 11.5518 17.6693 11.9838 17.3813 12.2165C17.3153 12.2698 17.2213 12.3365 17.1047 12.3831C16.7846 13.4348 16.1476 14.362 15.2806 15.038C14.4137 15.7139 13.3591 16.1055 12.2611 16.1594C11.1631 16.2132 10.0753 15.9266 9.14634 15.3388C8.2174 14.7509 7.4927 13.8905 7.07132 12.8751L7.05532 12.8778L6.81866 12.5905L7.33332 12.1665L6.81866 12.5905L6.81799 12.5891L6.81666 12.5878L6.81332 12.5831L6.80199 12.5698C6.74494 12.4988 6.69003 12.4261 6.63732 12.3518C6.49337 12.1521 6.3577 11.9466 6.23066 11.7358C5.91732 11.2171 5.53932 10.4785 5.29732 9.61646C5.05599 8.75446 4.94532 7.74379 5.19866 6.70112C5.44532 5.68646 6.02732 4.68779 7.08132 3.79579L7.09932 3.71712ZM8.21932 12.1425C8.50846 12.974 9.0637 13.6869 9.79904 14.1709C10.5344 14.6549 11.4088 14.8829 12.2868 14.8197C13.1649 14.7564 13.9976 14.4054 14.656 13.821C15.3144 13.2366 15.7617 12.4515 15.9287 11.5871L16.004 11.6125C16.0013 11.5747 16 11.5369 16 11.4991C16 10.3958 15.8467 9.62579 15.704 9.14579C15.6761 9.05236 15.6452 8.95987 15.6113 8.86846L15.584 8.86979H15.5573C15.0588 8.88055 14.5605 8.8426 14.0693 8.75646C12.9247 8.56312 11.3747 8.08046 9.54932 6.96246C9.50932 7.05179 9.46932 7.15246 9.42932 7.26446C9.29866 7.63446 9.19132 8.07379 9.09866 8.53779C9.01666 8.94646 8.94932 9.35779 8.88532 9.74312L8.86066 9.89512C8.79199 10.3085 8.72332 10.7145 8.64332 11.0085C8.50332 11.5191 8.36066 11.8818 8.21932 12.1418V12.1425ZM7.28599 10.9005C6.98488 10.3836 6.74844 9.83168 6.58199 9.25712C6.38266 8.54646 6.30932 7.77712 6.49466 7.01646C6.67466 6.27646 7.10999 5.49846 8.00532 4.76112C8.16666 4.65179 8.23999 4.50512 8.25999 4.46579V4.46512C8.295 4.39305 8.32312 4.31782 8.34399 4.24046C8.36532 4.16446 8.38866 4.06046 8.41066 3.96712L8.43399 3.86246C8.49732 3.59379 8.57932 3.30112 8.72599 3.03379C8.86866 2.77512 9.06399 2.55379 9.35466 2.40912C9.64666 2.26312 10.0987 2.16312 10.8067 2.25779C11.7753 2.38646 13.5973 2.69512 15.1613 3.49112C16.7147 4.28112 17.8893 5.47712 17.8893 7.37379C17.8893 8.24712 17.596 9.24046 17.2427 10.0238C17.176 9.51312 17.08 9.09579 16.9813 8.76512C16.9126 8.52879 16.8268 8.29775 16.7247 8.07379C16.6862 7.99079 16.6439 7.9096 16.598 7.83046L16.5867 7.81246L16.5827 7.80579L16.5807 7.80246L16.5793 7.80046L16.0193 8.16046L16.5793 7.80046L16.3327 7.41779L15.8913 7.50646L15.882 7.50846L15.8173 7.51712C15.7181 7.52818 15.6185 7.53485 15.5187 7.53712C15.1076 7.54507 14.6968 7.51292 14.292 7.44112C13.2167 7.25979 11.6367 6.76579 9.71732 5.48779L9.25066 5.17646L8.86466 5.58312C8.54666 5.91779 8.33066 6.37446 8.17266 6.81912C8.01132 7.27579 7.88932 7.78579 7.79132 8.27512C7.71008 8.69155 7.63629 9.10939 7.56999 9.52846L7.54466 9.67779C7.47332 10.1118 7.41532 10.4431 7.35666 10.6578C7.33477 10.7392 7.31121 10.8201 7.28599 10.9005ZM16.54 11.1818L16.5427 11.1805L16.54 11.1818ZM16.5427 11.1805L16.54 11.1818L16.542 11.1805H16.5427Z" fill="white"/>
<path fill-rule="evenodd" clip-rule="evenodd" d="M7.94267 16.7363C7.80133 16.455 7.62733 16.1076 7.33333 16.175C3.73067 16.995 0 19.3623 0 21.8796V25.4996H24V21.8796C24 19.897 21.6853 18.007 18.942 16.893L18.9387 16.8863C18.9356 16.8803 18.9325 16.8743 18.9293 16.8683L18.9073 16.879C18.1787 16.5856 17.42 16.3456 16.6667 16.175C16.3313 16.0983 15.9847 16.5596 15.8333 16.8483H8C7.98133 16.8136 7.96267 16.775 7.94267 16.7363ZM16.9353 17.6163C17.2267 17.697 17.5167 17.7876 17.8027 17.8876C17.8107 18.1156 17.7933 18.385 17.756 18.6596C17.718 18.944 17.6574 19.2249 17.5747 19.4996H16.6667C16.5429 19.4997 16.4216 19.5342 16.3163 19.5993C16.2111 19.6645 16.126 19.7576 16.0707 19.8683L15.404 21.2016C15.3576 21.2942 15.3334 21.3962 15.3333 21.4996V22.833C15.3333 23.0098 15.4036 23.1794 15.5286 23.3044C15.6536 23.4294 15.8232 23.4996 16 23.4996H17.3333V22.1663H16.6667V21.657L17.0787 20.833H18.9213L19.3333 21.657V22.1663H18.6667V23.4996H20C20.1768 23.4996 20.3464 23.4294 20.4714 23.3044C20.5964 23.1794 20.6667 23.0098 20.6667 22.833V21.4996C20.6666 21.3962 20.6424 21.2942 20.596 21.2016L19.9293 19.8683C19.874 19.7576 19.7889 19.6645 19.6837 19.5993C19.5784 19.5342 19.4571 19.4997 19.3333 19.4996H18.956C19.0384 19.1468 19.0936 18.7882 19.1213 18.427C19.7713 18.7343 20.3753 19.087 20.8987 19.4683C22.18 20.403 22.6667 21.2776 22.6667 21.8796V24.1663H1.33333V21.8796C1.33333 21.2776 1.82 20.403 3.10133 19.4683C3.74533 18.9983 4.514 18.573 5.338 18.221C5.36089 18.7522 5.44614 19.279 5.592 19.7903L5.59733 19.809C5.19878 20.0611 4.90214 20.446 4.75982 20.8956C4.61751 21.3453 4.63866 21.8307 4.81955 22.2663C5.00044 22.7018 5.32942 23.0594 5.7484 23.2759C6.16738 23.4924 6.6494 23.5539 7.10931 23.4495C7.56923 23.3451 7.97746 23.0816 8.2619 22.7054C8.54634 22.3292 8.68869 21.8646 8.6638 21.3936C8.63892 20.9227 8.44841 20.4757 8.12591 20.1315C7.80342 19.7874 7.36969 19.5683 6.90133 19.513C6.81615 19.2341 6.75372 18.9487 6.71467 18.6596C6.67755 18.4012 6.66216 18.14 6.66867 17.879C6.6706 17.8291 6.67393 17.7793 6.67867 17.7296C6.75867 17.705 6.83867 17.681 6.91867 17.6583L7.19533 18.1823H16.638L16.9353 17.617V17.6163ZM6.66667 22.177C7.02533 22.177 7.33333 21.8836 7.33333 21.5003C7.33333 21.1176 7.02533 20.8236 6.66667 20.8236C6.308 20.8236 6 21.117 6 21.5003C6 21.883 6.308 22.177 6.66667 22.177Z" fill="white"/>
</svg>
